# Blender 3.3.0
# www.blender.org
o Pawn
v -0.728697 3.583612 0.023010
v -0.384276 3.583612 -0.619565
v 0.349793 4.160154 -0.605860
v 0.153917 3.079588 -0.266593
v 0.394797 4.448118 0.299963
v 0.746105 3.847539 0.000000
v 0.403450 3.232213 0.232932
v 0.373052 3.847539 0.646146
v -0.122077 4.577307 -0.288797
v -0.457174 4.448118 0.191923
v -0.344421 3.583612 0.642575
v 0.000000 0.000000 -1.500000
v 1.060660 0.000000 -1.060660
v 1.500000 0.000000 -0.000000
v 1.060660 0.000000 1.060660
v -0.000000 0.000000 1.500000
v -1.060661 0.000000 1.060660
v -1.500000 0.000000 -0.000001
v -1.060659 0.000000 -1.060662
v -1.273529 0.578009 -0.020263
v 0.000000 0.800578 -1.415118
v 1.000639 0.800578 -1.000639
v 1.415118 0.800578 -0.000000
v 1.000639 0.800578 1.000639
v -0.000000 0.800578 1.415118
v -0.925607 0.638457 0.896369
v -1.415118 0.800578 -0.000001
v -1.000638 0.800578 -1.000641
v -0.018854 0.574106 -1.290579
v 0.877291 0.578261 -0.901631
v 1.288309 0.561300 -0.036757
v 0.899245 0.574106 0.925909
v -0.056334 0.574355 1.274954
v -0.901630 0.578261 -0.877292
v -0.022007 1.244092 -0.919411
v 0.636426 1.245405 -0.664450
v 0.918894 1.243231 -0.015544
v 0.660748 1.243231 0.638765
v -0.004359 1.244821 0.926465
v -0.661987 1.242059 0.636968
v -0.646265 1.242504 -0.643290
v -0.918894 1.243231 -0.015545
v 0.000000 3.265162 -0.000001
v -0.000000 2.907371 0.456892
v -0.425276 2.903063 0.216436
v -0.480578 1.985001 0.182143
v 0.187312 2.011622 0.475737
v 0.454663 2.905035 0.144698
v 0.475956 1.989641 -0.193271
v -0.188481 1.957603 -0.481253
v -0.059629 2.902614 -0.502623
v 0.368618 3.009011 0.889924
v 0.941104 3.009041 -0.299511
v -0.389326 3.009178 -0.939918
v -0.877247 3.009041 0.453674
vn -0.5447 -0.7861 -0.2920
vn -0.8268 0.3463 -0.4432
vn -0.2723 0.3678 -0.8891
vn 0.8073 -0.5398 -0.2384
vn 0.5222 0.8049 -0.2818
vn 0.8388 0.2488 0.4843
vn -0.2136 -0.8994 0.3815
vn -0.1866 0.4957 0.8482
vn 0.1946 -0.5402 0.8187
vn -0.0304 0.9704 0.2396
vn -0.4143 -0.8731 0.2570
vn -0.8386 0.1618 0.5201
vn 0.8106 -0.4809 0.3340
vn 0.3112 -0.4205 0.8522
vn 0.3640 0.3086 0.8788
vn 0.8721 0.3300 0.3612
vn -0.3891 -0.4132 0.8233
vn -0.7820 -0.5277 0.3316
vn -0.8864 0.2820 0.3672
vn -0.3640 0.3086 0.8788
vn -0.6461 0.7148 -0.2676
vn -0.2634 0.7254 -0.6359
vn 0.2637 0.7247 -0.6367
vn 0.6461 0.7148 -0.2676
vn -0.4859 0.5155 0.7058
vn 0.6461 0.7148 0.2676
vn -0.7090 0.5162 0.4805
vn 0.2679 0.7141 0.6468
vn -0.7763 -0.5327 -0.3370
vn -0.3865 -0.4195 -0.8214
vn -0.3640 0.3086 -0.8788
vn -0.8724 0.3291 -0.3614
vn -0.0000 -1.0000 -0.0000
vn 0.3612 0.3300 -0.8721
vn 0.8791 0.3077 -0.3641
vn 0.8328 -0.3794 -0.4032
vn 0.3389 -0.5332 -0.7751
vn 0.3027 0.9419 0.1457
vn 0.1533 0.9355 -0.3183
vn -0.7496 0.5599 -0.3532
vn -0.9074 0.1146 -0.4043
vn 0.2993 0.5556 -0.7757
vn 0.3996 -0.0751 -0.9136
vn 0.7796 0.5456 0.3076
vn 0.9095 -0.1252 0.3965
vn -0.3675 0.4229 -0.8283
vn 0.8367 0.4101 -0.3629
vn 0.3642 0.4026 0.8398
vn -0.3544 0.5497 0.7565
vn -0.4021 -0.0100 0.9156
vn -0.1891 -0.9773 -0.0956
vn 0.1693 -0.9206 -0.3520
vn 0.3513 -0.9209 0.1690
vn -0.1132 -0.9695 0.2175
vn -0.8065 0.3671 -0.4635
vn 0.2786 -0.3333 -0.9007
vn 0.7896 0.5724 -0.2212
vn 0.7055 -0.3255 -0.6295
vn 0.8311 -0.2812 0.4798
vn -0.1125 0.4477 0.8871
vn 0.8130 -0.4751 0.3367
vn 0.3183 -0.5553 0.7683
vn 0.3185 0.3727 0.8716
vn 0.8698 0.3508 0.3469
vn -0.8812 0.3562 0.3110
vn -0.3616 0.3033 0.8816
vn -0.6297 0.7268 -0.2743
vn -0.2874 0.7074 -0.6457
vn 0.2542 0.7069 -0.6600
vn 0.6329 0.7245 -0.2731
vn -0.2872 0.7075 0.6457
vn 0.6397 0.7260 0.2524
vn -0.6396 0.7259 0.2531
vn 0.2744 0.7261 0.6304
vn -0.8085 -0.4839 -0.3349
vn -0.3160 -0.5640 -0.7629
vn -0.3917 0.3743 -0.8405
vn -0.8580 0.3540 -0.3722
vn -0.1110 0.9419 0.3171
vn 0.3710 0.3538 -0.8586
vn 0.8404 0.3743 -0.3920
vn 0.7629 -0.5640 -0.3160
vn 0.3367 -0.4751 -0.8130
vn -0.3335 0.9355 -0.1167
vn -0.7695 0.5439 -0.3348
vn -0.8891 0.0704 -0.4522
vn 0.3100 0.5490 -0.7762
vn 0.7799 0.5387 0.3188
vn -0.8477 0.4118 0.3345
vn 0.7595 0.2408 -0.6043
vn 0.5614 0.1346 0.8165
vn -0.3415 0.5383 0.7705
vn -0.4898 -0.0842 0.8678
vn -0.2749 -0.9566 -0.0963
vn 0.1243 -0.9877 -0.0951
vn 0.0969 -0.9842 0.1485
vn -0.1104 -0.9426 0.3152
s 0
f 4//1 1//1 2//1
f 10//2 2//2 1//2
f 9//3 3//3 2//3
f 4//4 6//4 7//4
f 3//5 9//5 5//5
f 5//6 8//6 6//6
f 4//7 7//7 11//7
f 5//8 11//8 8//8
f 8//9 11//9 7//9
f 5//10 9//10 10//10
f 4//11 11//11 1//11
f 10//12 1//12 11//12
f 23//13 32//13 31//13
f 24//14 33//14 32//14
f 32//15 16//15 15//15
f 14//16 32//16 15//16
f 25//17 26//17 33//17
f 26//18 27//18 20//18
f 26//19 18//19 17//19
f 33//20 17//20 16//20
f 42//21 28//21 27//21
f 41//22 21//22 28//22
f 35//23 22//23 21//23
f 22//24 37//24 23//24
f 25//25 40//25 26//25
f 23//26 38//26 24//26
f 40//27 27//27 26//27
f 24//28 39//28 25//28
f 20//29 28//29 34//29
f 34//30 21//30 29//30
f 19//31 29//31 12//31
f 20//32 19//32 18//32
f 13//33 15//33 17//33
f 29//34 13//34 12//34
f 13//35 31//35 14//35
f 30//36 23//36 31//36
f 29//37 22//37 30//37
f 53//38 43//38 52//38
f 54//39 43//39 53//39
f 41//40 46//40 50//40
f 46//41 51//41 50//41
f 35//42 49//42 36//42
f 50//43 51//43 49//43
f 37//44 47//44 38//44
f 49//45 48//45 47//45
f 41//46 50//46 35//46
f 36//47 49//47 37//47
f 38//48 47//48 39//48
f 40//49 47//49 46//49
f 47//50 45//50 46//50
f 45//51 54//51 51//51
f 51//52 54//52 53//52
f 48//53 53//53 52//53
f 44//54 55//54 45//54
f 10//55 9//55 2//55
f 2//56 3//56 4//56
f 3//57 5//57 6//57
f 4//58 3//58 6//58
f 6//59 8//59 7//59
f 5//60 10//60 11//60
f 23//61 24//61 32//61
f 24//62 25//62 33//62
f 32//63 33//63 16//63
f 14//64 31//64 32//64
f 26//65 20//65 18//65
f 33//66 26//66 17//66
f 42//67 41//67 28//67
f 41//68 35//68 21//68
f 35//69 36//69 22//69
f 22//70 36//70 37//70
f 25//71 39//71 40//71
f 23//72 37//72 38//72
f 40//73 42//73 27//73
f 24//74 38//74 39//74
f 20//75 27//75 28//75
f 34//76 28//76 21//76
f 19//77 34//77 29//77
f 20//78 34//78 19//78
f 17//33 18//33 19//33
f 19//33 12//33 17//33
f 12//33 13//33 17//33
f 13//33 14//33 15//33
f 15//33 16//33 17//33
f 55//79 52//79 43//79
f 29//80 30//80 13//80
f 13//81 30//81 31//81
f 30//82 22//82 23//82
f 29//83 21//83 22//83
f 54//84 55//84 43//84
f 41//85 42//85 46//85
f 46//86 45//86 51//86
f 35//87 50//87 49//87
f 37//88 49//88 47//88
f 42//89 40//89 46//89
f 49//90 51//90 48//90
f 47//91 48//91 44//91
f 40//92 39//92 47//92
f 47//93 44//93 45//93
f 45//94 55//94 54//94
f 48//95 51//95 53//95
f 44//96 48//96 52//96
f 44//97 52//97 55//97
